<?xml version="1.0" encoding="UTF-8"?>
<!DOCTYPE svg PUBLIC "-//W3C//DTD SVG 1.0//EN" "http://www.w3.org/TR/2001/REC-SVG-20010904/DTD/svg10.dtd">
<!-- Creator: CorelDRAW 2021.5 -->
<svg xmlns="http://www.w3.org/2000/svg" xml:space="preserve" width="1989px" height="972px" version="1.0" style="shape-rendering:geometricPrecision; text-rendering:geometricPrecision; image-rendering:optimizeQuality; fill-rule:evenodd; clip-rule:evenodd"
viewBox="0 0 1989 971.73"
 xmlns:xlink="http://www.w3.org/1999/xlink"
 xmlns:xodm="http://www.corel.com/coreldraw/odm/2003">
 <defs>
  <style type="text/css">
   <![CDATA[
    .fil0 {fill:#E28F49;fill-rule:nonzero}
   ]]>
  </style>
 </defs>
 <g id="Layer_x0020_1">
  <metadata id="CorelCorpID_0Corel-Layer"/>
  <g id="_105553241664384">
   <path class="fil0" d="M1562.78 325.99c0.12,-31.53 -4.49,-52.38 -13.87,-72.01 -42.2,-88.32 -152.79,-113.31 -228.97,-59.55 -69.18,48.84 -84.86,142.58 -35.32,209.49 41.45,55.98 116.42,77.5 181.32,52.05 58.85,-23.07 96.83,-77.86 96.84,-129.98zm116.31 165.77c35.06,38.72 69.74,77.02 104.91,115.86 31.67,-27.35 62.8,-54.25 94.59,-81.71 36.81,40.64 73.27,80.9 110.41,121.91 -31.15,27.61 -62.76,54.17 -94.31,82 27.49,30.41 54.41,60.2 81.8,90.49 -41.71,36.08 -82.98,71.78 -124.82,107.96 -27.4,-30.22 -54.38,-59.99 -82,-90.46 -31.45,27.16 -62.56,54.03 -94.37,81.5 -36.76,-40.58 -73.22,-80.83 -110.41,-121.89 30.99,-27.47 62.44,-53.9 94.07,-81.77 -34.95,-38.98 -69.88,-77.26 -104.82,-115.93 -2.63,1.1 -4.87,1.95 -7.05,2.95 -36.76,16.8 -75.26,26.39 -115.62,29.21 -114.89,8.02 -228.01,-45.4 -292.86,-142.21 -27.48,-41.01 -44.71,-85.97 -50.43,-135.08 -10.06,-86.39 11.85,-164.19 65.65,-232.27 47.05,-59.53 108.36,-98.05 182.57,-113.87 108.72,-23.18 206.42,1.24 290.53,74.22 55.54,48.2 89.49,109.68 101.61,182.32 13.06,78.32 -2.41,151.29 -44.4,218.65 -1.53,2.46 -3.06,4.93 -5.05,8.12z"/>
   <path class="fil0" d="M307.56 511.71c0.77,7.18 1.41,16.19 2.79,25.09 1.77,11.4 5.39,22.21 11.74,32.02 18.39,28.4 60.17,27.56 77.98,0.46 4.89,-7.45 8.29,-15.47 10.28,-24.08 5.58,-24.07 5.73,-48.33 1.99,-72.66 -1.98,-12.91 -5.7,-25.2 -13.72,-35.81 -18.81,-24.91 -55.32,-25.13 -74.45,-0.45 -5.31,6.84 -8.75,14.6 -11.11,22.88 -4.74,16.6 -5.41,33.63 -5.5,52.55zm54.41 128.75c-53.74,0.02 -94.19,-30.77 -109.55,-83.17 -6.57,-22.44 -8.33,-45.42 -6.56,-68.77 1.32,-17.39 4.3,-34.35 10.97,-50.49 14.18,-34.3 38.1,-58.34 74.82,-67.09 36.84,-8.78 71.28,-3.07 101.29,21.41 16.08,13.13 27.12,30.13 33.75,49.6 14.06,41.28 14.35,82.98 -0.12,124.11 -11.31,32.17 -32.62,55.71 -65.26,67.76 -12.93,4.77 -26.36,6.95 -39.34,6.64z"/>
   <path class="fil0" d="M719.82 612.38c8.03,-15.43 15.65,-30.09 23.51,-45.19 2.17,1.14 3.89,1.92 5.48,2.9 25.84,15.92 54.03,21.8 84.05,19.43 8.56,-0.67 16.81,-2.99 24.26,-7.51 11.1,-6.74 15.93,-16.63 14.95,-29.56 -0.96,-12.64 -7.95,-20.5 -19.27,-25.16 -10.15,-4.18 -20.89,-4.65 -31.61,-5.04 -6.83,-0.24 -13.67,-0.02 -20.5,-0.1 -2.36,-0.02 -4.72,-0.29 -7.93,-0.51 0,-6.59 -0.07,-12.63 0.02,-18.67 0.1,-6.8 -1.26,-14.21 1,-20.23 2.17,-5.77 8.09,-10.17 12.49,-15.06 12.08,-13.43 24.22,-26.79 36.31,-40.19 1.61,-1.78 3.09,-3.67 4.85,-5.77 -2.76,-2.49 -5.77,-1.68 -8.48,-1.68 -31.72,-0.07 -63.44,-0.03 -95.16,-0.07 -3.11,0 -6.21,-0.31 -9.09,-0.47 -2.08,-6.62 -2.18,-40.38 -0.18,-47.27l186.54 0c0.33,1.17 0.92,2.29 0.93,3.4 0.08,10.49 -0.06,20.99 0.14,31.48 0.07,3.64 -1.97,5.84 -4.09,8.2 -17.13,19.06 -34.25,38.12 -51.35,57.19 -1.74,1.94 -3.37,3.98 -5.78,6.84 3.64,0.88 6.16,1.51 8.69,2.1 13.92,3.23 27.09,8.18 38.34,17.27 16.5,13.33 25.29,30.63 26.16,51.85 1.4,33.89 -13.48,58.56 -42.79,74.93 -15.84,8.85 -33.13,13.05 -51,14.39 -33.29,2.51 -65.73,-1.63 -96.8,-14.38 -8.1,-3.32 -15.88,-7.28 -23.69,-13.12z"/>
   <path class="fil0" d="M536.71 443.9c-14.89,-9.38 -29.3,-18.45 -44.42,-27.97 1.96,-2.66 3.51,-5.03 5.32,-7.19 11.02,-13.17 24.63,-22.98 40.39,-29.52 33.6,-13.97 68.1,-15.73 103.13,-6.12 11.38,3.12 21.86,8.36 31.15,15.74 21.11,16.76 29.16,38.91 26.69,65.32 -1.88,20.13 -9.94,37.58 -23.36,52.54 -5.86,6.53 -11.91,12.94 -18.31,18.93 -19.23,18.01 -38.69,35.78 -58.04,53.67 -2.07,1.92 -4.01,3.97 -7.34,7.3 20.72,0.85 39.59,0.31 58.45,0.41 18.97,0.1 37.94,0.02 57.44,0.02l0 48.47 -203.56 0c0,-3.44 0,-6.77 0,-10.1 0,-7.32 0.29,-14.65 -0.11,-21.95 -0.24,-4.63 1.41,-7.69 4.74,-10.74 20.38,-18.57 40.58,-37.34 60.84,-56.04 12.73,-11.75 25.6,-23.34 38.12,-35.32 6.5,-6.22 12.73,-12.81 18.39,-19.81 7.07,-8.73 11.02,-18.92 11.05,-30.35 0.03,-14.42 -6.99,-24.9 -20.46,-29.78 -20.72,-7.5 -56.1,-5.15 -76.11,18.08 -1.1,1.28 -2.27,2.5 -4,4.41z"/>
   <path class="fil0" d="M104.91 586.96l113.9 0c0.97,16.42 0.29,32.13 0.45,47.68 -5.74,1.69 -188,2.38 -203.4,0.86 -0.21,-1.73 -0.62,-3.58 -0.63,-5.43 -0.07,-8.78 0.25,-17.58 -0.15,-26.35 -0.22,-4.9 1.6,-8.12 5.09,-11.31 30.74,-28.2 61.46,-56.44 91.96,-84.9 8.54,-7.97 16.79,-16.35 24.41,-25.19 7.67,-8.91 11.75,-19.61 11.68,-31.59 -0.08,-14.05 -7.01,-24.29 -20.2,-29.21 -20.31,-7.57 -56.03,-5.45 -76.19,17.76 -1.26,1.45 -2.64,2.79 -4.3,4.54 -14.75,-9.28 -29.32,-18.45 -44.26,-27.85 5.74,-8.9 12.62,-15.74 20.33,-21.74 17.33,-13.49 37.09,-21.28 58.67,-24.71 23.43,-3.72 46.66,-3.23 69.55,3.47 11.57,3.39 22.3,8.56 31.76,16.13 20.59,16.47 28.61,38.23 26.46,64.04 -1.69,20.38 -9.42,38.41 -23.38,53.27 -11.67,12.43 -24.11,24.16 -36.48,35.91 -13.45,12.76 -27.2,25.21 -40.89,37.72 -1.77,1.61 -4.02,2.71 -6.05,4.05 0.56,0.95 1.12,1.9 1.67,2.85z"/>
   <path class="fil0" d="M295.47 807.3c-7.29,0 -13.85,-0.1 -20.4,0.03 -3.46,0.07 -4.43,-2.55 -5.8,-4.77 -7.38,-12.06 -14.72,-24.14 -22.08,-36.2 -5.83,-9.58 -11.65,-19.17 -17.51,-28.72 -1.24,-2.01 -2.66,-3.9 -5.03,-7.38 -6.49,26.45 -10.55,51.74 -16.4,76.67l-27.52 0c8.34,-40.8 16.57,-81.04 24.94,-122.02 7.11,0 13.88,0.08 20.65,-0.04 3.46,-0.06 4.39,2.63 5.74,4.83 8.4,13.72 16.74,27.48 25.1,41.22 4.93,8.12 9.85,16.25 14.83,24.35 1.12,1.81 2.43,3.51 4.51,6.49 4.06,-13.48 5.77,-26.14 8.42,-38.56 2.69,-12.58 5.23,-25.19 7.87,-37.98l27.63 0c-8.33,40.74 -16.55,80.95 -24.95,122.08z"/>
   <path class="fil0" d="M1067.11 807.33c-6.19,0 -11.32,-0.32 -16.39,0.09 -4.99,0.4 -7.95,-1.4 -10.51,-5.74 -9.78,-16.59 -19.93,-32.96 -29.94,-49.4 -3.17,-5.2 -6.31,-10.43 -9.55,-15.59 -1.1,-1.76 -2.48,-3.35 -4.75,-6.39 -5.51,26.51 -10.69,51.41 -15.93,76.6l-27.65 0c8.34,-40.78 16.6,-81.15 24.89,-121.69l23.65 0c15.36,25.17 30.77,50.43 46.19,75.69 0.62,-0.13 1.24,-0.25 1.87,-0.37 5.11,-24.95 10.22,-49.89 15.4,-75.17l27.67 0c-8.36,40.86 -16.59,81.11 -24.95,121.97z"/>
   <path class="fil0" d="M637.85 786.24c2.2,-0.24 5.88,-0.34 9.42,-1.11 23.25,-5.07 37.97,-26.23 35.83,-51.3 -1.13,-13.22 -8.94,-22.65 -21.74,-26.18 -7.66,-2.1 -15.43,-2.25 -23.14,-0.63 -22.04,4.66 -36.58,23.61 -36.55,47.37 0.02,17.4 10.86,29.52 28.16,31.43 2.18,0.24 4.38,0.24 8.02,0.42zm-3.48 23.99c-8.12,-1.4 -16.45,-2.06 -24.32,-4.34 -26.64,-7.74 -39.47,-29.9 -36.49,-56.63 4.31,-38.76 31.98,-64.12 71.22,-66.15 12.01,-0.63 23.9,0.04 35.16,4.76 19.89,8.34 30.64,23.19 31.73,44.9 2.2,43.79 -30.5,73.59 -68.4,76.16 -2.92,0.2 -5.84,0.36 -8.75,0.54 -0.05,0.26 -0.1,0.51 -0.15,0.76z"/>
   <path class="fil0" d="M932.37 734.61c-1.71,8.07 -3.06,14.43 -4.5,21.27 -5.41,0 -10.26,0 -15.1,0 -12.68,0 -25.36,-0.05 -38.04,0.04 -5.45,0.03 -5.56,0.17 -6.68,5.56 -1.58,7.57 -3.02,15.16 -4.77,23.94 8.38,0.11 15.82,0.23 23.26,0.28 7.32,0.04 14.63,0.01 21.95,0.01 7.5,0 15,0 23.43,0 -1.54,7.55 -2.88,14.13 -4.3,21.12l-96.74 0c8.3,-40.65 16.53,-80.88 24.82,-121.49l94.35 0c-1.5,7.06 -2.9,13.66 -4.5,21.17 -2.83,0 -5.44,0 -8.05,0 -16.82,0 -33.65,-0.02 -50.48,0.01 -7.51,0.02 -7.55,0.06 -9.06,7.19 -1.39,6.6 -2.69,13.21 -4.24,20.9l58.65 0z"/>
   <path class="fil0" d="M1364.36 713.37c-0.72,-0.07 -1.45,-0.15 -2.17,-0.23 -9.45,15.15 -18.9,30.31 -28.5,45.69 6.69,1.91 33.18,2.05 40.84,0.23 -3.39,-15.22 -6.78,-30.45 -10.17,-45.69zm18.42 -28.49c10.3,41 20.37,81.08 30.62,121.9l-27.81 0c-1.97,-8.05 -4.02,-16.46 -6.18,-25.34 -2.32,-0.19 -4.43,-0.5 -6.55,-0.51 -15.6,-0.04 -31.21,0.12 -46.81,-0.11 -4.4,-0.06 -7.25,1.24 -9.43,5.13 -3.33,5.95 -7.18,11.61 -10.71,17.45 -1.48,2.44 -3.1,4.06 -6.32,3.98 -8.03,-0.2 -16.07,-0.06 -24.91,-0.06 0.85,-1.99 1.25,-3.54 2.09,-4.8 24.99,-37.83 50.04,-75.61 74.99,-113.47 1.94,-2.95 4.07,-4.36 7.7,-4.24 7.51,0.24 15.04,0.07 23.32,0.07z"/>
   <path class="fil0" d="M0 795.66c3.7,-6.87 7.25,-13.44 10.98,-20.37 9.65,5.73 19.21,9.88 29.71,11.39 8.49,1.22 17.03,1.75 25.38,-0.77 2.97,-0.89 6.02,-2.21 8.46,-4.08 7.23,-5.56 6.43,-14.17 -1.7,-18.29 -3.89,-1.96 -8.14,-3.23 -12.29,-4.62 -7.62,-2.56 -15.43,-4.59 -22.9,-7.51 -22.51,-8.8 -28.14,-32.79 -12.23,-51.16 7,-8.07 16.16,-12.66 26.29,-14.9 18.18,-4.03 36.32,-3.55 54.09,2.47 3.63,1.23 7.05,3.07 11.23,4.92 -3.66,7.33 -6.98,13.98 -10.45,20.92 -12.48,-7.1 -25.22,-10.06 -38.64,-8.74 -5.43,0.53 -11.19,1.94 -15.92,4.54 -9.85,5.41 -9.42,16.04 0.65,20.89 5.22,2.52 11,3.88 16.55,5.69 6.01,1.96 12.18,3.52 18.06,5.83 21.32,8.36 27.03,30.89 12.53,48.78 -5.22,6.43 -11.86,11.02 -19.6,13.59 -26.25,8.71 -51.82,6.64 -76.56,-5.7 -0.65,-0.33 -1.24,-0.78 -1.82,-1.21 -0.39,-0.29 -0.72,-0.66 -1.82,-1.67z"/>
   <path class="fil0" d="M1228.66 704.07c-6.78,5.42 -13.18,10.54 -19.81,15.84 -6.01,-6.28 -12.26,-11.09 -20.53,-12.75 -34.1,-6.85 -60.38,18.28 -57.79,51.39 1.21,15.55 12.86,25.81 29.38,27.36 15.12,1.43 28.5,-2.35 39.69,-13.3 5.48,5.59 10.67,10.89 16.55,16.9 -3.5,2.89 -6.84,6 -10.54,8.6 -7.28,5.13 -15.47,8.23 -24.23,9.7 -14.85,2.51 -29.66,2.51 -44.05,-2.4 -26.49,-9.04 -37.78,-30.5 -35.26,-55.61 3.86,-38.34 31.64,-64.39 70.11,-66.61 12.26,-0.72 24.36,-0.16 35.93,4.58 8.03,3.29 15.07,7.87 20.55,16.3z"/>
   <path class="fil0" d="M416.17 807.33c-9.73,-40.85 -19.31,-81.07 -29.05,-121.96l28.92 0c6.66,28.55 13.34,57.18 20.46,87.68 2.48,-3.37 4.05,-5.31 5.41,-7.38 16.09,-24.73 32.3,-49.4 48.1,-74.32 3.15,-4.96 6.55,-7.01 12.34,-6.58 6.45,0.48 12.96,0.11 20.58,0.11 -1.82,3.16 -2.9,5.26 -4.17,7.22 -23.58,36.46 -47.26,72.83 -70.65,109.4 -2.89,4.51 -5.97,6.28 -11.21,5.93 -6.54,-0.43 -13.14,-0.1 -20.73,-0.1z"/>
   <path class="fil0" d="M816.78 785.77c0,1.85 0.19,3.06 -0.04,4.19 -1.07,5.47 -2.26,10.92 -3.51,16.84l-91.43 0c8.31,-40.72 16.54,-80.95 24.83,-121.49l28.24 0c-3.49,17 -6.86,33.39 -10.21,49.8 -3.29,16.16 -6.55,32.34 -10.01,49.4 3.69,0.29 6.5,0.69 9.31,0.7 14.88,0.07 29.75,0.01 44.63,0.06 2.61,0.01 5.22,0.31 8.19,0.5z"/>
   <path class="fil0" d="M535.07 685.16l26.95 0c0.48,5.7 -20.59,111.3 -24.27,121.78l-27.56 0c8.32,-40.74 16.54,-80.95 24.88,-121.78z"/>
   <path class="fil0" d="M1258.85 806.98l-28.26 0c8.32,-40.73 16.53,-80.92 24.83,-121.57l28.29 0c-8.34,40.77 -16.56,80.99 -24.86,121.57z"/>
   <path class="fil0" d="M149.62 807l-27.88 0c3.39,-20.67 8.1,-40.68 12.08,-60.82 4.01,-20.28 8.33,-40.49 12.55,-60.95l27.85 0c-3.31,20.7 -8.1,40.71 -12.06,60.86 -3.99,20.27 -8.32,40.48 -12.54,60.91z"/>
   <path class="fil0" d="M594.11 214.17c4.93,-2.41 7.43,0.4 10.02,3.64 23.73,29.74 47.53,59.43 71.33,89.12 1.76,2.19 3.64,4.29 6.3,6.16 1.12,-11.08 0.92,-21.91 0.95,-32.73 0.04,-11.22 0.01,-22.44 0.01,-33.67 0,-10.92 0,-21.84 0,-33.07l6.53 0c0.38,0.71 0.92,1.29 1,1.94 0.2,1.68 0.27,3.39 0.27,5.09 0.02,33.91 0.02,67.82 0,101.73 0,1.91 -0.23,3.83 -0.35,5.78 -3.96,2.44 -6.5,0.84 -8.87,-2.16 -7.13,-8.98 -14.34,-17.89 -21.52,-26.83 -17.1,-21.3 -34.19,-42.61 -51.31,-63.9 -1.64,-2.04 -3.4,-3.99 -4.99,-5.83 -0.79,0.33 -1.04,0.4 -1.23,0.53 -0.18,0.13 -0.36,0.31 -0.43,0.51 -0.15,0.46 -0.32,0.94 -0.32,1.42 -0.01,31.94 -0.01,63.89 -0.01,96.75 -2.48,0.24 -4.65,0.45 -7.38,0.71l0 -115.19z"/>
   <path class="fil0" d="M196.65 323.76c4.8,-0.69 9.67,-1.04 14.39,-2.11 21.11,-4.82 36.88,-22.42 39.5,-43.79 2.74,-22.37 -8.36,-43.37 -28.34,-53.11 -11.25,-5.49 -23.09,-6.95 -35.54,-4.92 -31.11,5.05 -50.47,34.54 -42.38,64.94 6.22,23.38 26.74,38.48 52.37,38.99zm-0.22 6.72c-28.08,-0.54 -51.07,-16.54 -58.84,-41.37 -10.91,-34.87 11.29,-70.32 47.3,-75.89 13.12,-2.03 25.78,-0.97 38.02,4.09 24.03,9.93 37.85,32.78 35.52,59.05 -2.36,26.58 -20.49,46.69 -46.1,52.01 -5.22,1.09 -10.59,1.43 -15.9,2.11z"/>
   <path class="fil0" d="M575.64 963.19c10.82,0 21,0.16 31.17,-0.08 4.1,-0.1 8.29,-0.69 12.26,-1.73 17.72,-4.64 28.67,-19.08 28.81,-37.59 0.14,-19.06 -10.56,-33.76 -28.47,-38.59 -4.19,-1.13 -8.63,-1.67 -12.98,-1.82 -8.28,-0.29 -16.58,-0.14 -24.88,-0.07 -1.86,0.01 -3.71,0.43 -5.91,0.7l0 79.18zm-9.22 -87.2c18.97,0.37 37.3,-2.31 55.25,2.05 23.62,5.75 37.11,25.12 35.37,49.42 -1.62,22.48 -18.81,40.3 -42.17,42.26 -14.78,1.24 -29.69,0.79 -44.55,1.05 -1.15,0.02 -2.31,-0.44 -3.9,-0.76l0 -94.02z"/>
   <path class="fil0" d="M297.35 283.26c2.01,0.7 2.69,1.15 3.36,1.14 14.36,-0.23 28.74,-0.17 43.06,-0.98 4.67,-0.27 9.55,-2.23 13.74,-4.49 11.03,-5.94 15.14,-15.94 14.81,-28.07 -0.32,-11.63 -4.9,-21.09 -15.68,-26.01 -5.83,-2.67 -12.5,-4.31 -18.9,-4.73 -11.65,-0.76 -23.37,-0.3 -35.07,-0.29 -1.4,0 -2.81,0.39 -5.17,0.75 -0.33,20.94 -0.12,41.75 -0.15,62.68zm-0.02 45.08c-1.53,0.46 -2.42,0.89 -3.33,0.95 -0.93,0.07 -1.88,-0.24 -2.5,-0.33 -1.89,-1.69 -2.24,-105.03 -0.61,-115.09 1.49,-0.2 3.11,-0.61 4.74,-0.61 13.66,-0.04 27.32,-0.01 40.98,0.02 7.66,0.02 15.06,1.52 22.01,4.7 14.33,6.55 21.48,17.99 21.56,33.6 0.07,15.82 -6.6,27.71 -21.43,34.37 -1.76,0.79 -3.54,1.53 -6.17,2.66 3.81,7.4 9.19,13.31 13.7,19.76 4.59,6.57 9.43,12.97 14.23,19.55 -6.25,2.23 -6.84,2.21 -10.09,-2.16 -7.42,-9.98 -14.89,-19.94 -21.94,-30.18 -2.85,-4.15 -6.03,-5.39 -10.96,-5.16 -10.47,0.5 -20.97,0.24 -31.46,0.3 -8.64,0.06 -8.67,0.07 -8.72,8.42 -0.04,7.32 -0.01,14.64 -0.01,21.96 0,2.39 0,4.78 0,7.24z"/>
   <path class="fil0" d="M1093.37 969.83c-5.31,2.23 -7.99,-0.21 -10.65,-3.51 -17.74,-22.04 -35.57,-44.01 -53.4,-65.98 -1.5,-1.86 -3.14,-3.62 -4.95,-5.71 -2.57,2.44 -1.75,5.24 -1.76,7.68 -0.08,19.51 -0.05,39.03 -0.05,58.54 0,2.89 0,5.78 0,9.29l-8.67 0 0 -92.95c5.34,-2.92 8.26,-0.07 11.23,3.61 17.74,22.04 35.58,44 53.41,65.96 1.47,1.81 3.08,3.5 6.14,4.86 0.15,-2.52 0.41,-5.05 0.41,-7.57 0.03,-19.76 0.01,-39.52 0.04,-59.27 0,-2.62 0.23,-5.24 0.37,-8.23l7.88 0 0 93.28z"/>
   <path class="fil0" d="M1230.08 931.73c7.9,1.89 32.72,1.46 39.44,-0.59 0.93,-0.28 1.89,-0.5 2.78,-0.86 9.36,-3.78 14.54,-11.82 14.46,-22.38 -0.09,-10.8 -5.1,-18.4 -14.78,-22.05 -2.71,-1.02 -5.6,-2.09 -8.43,-2.15 -10.68,-0.21 -21.37,-0.03 -32.05,0.06 -0.37,0 -0.74,0.56 -1.42,1.12l0 46.85zm43.73 6.94c7.64,10.57 14.84,20.54 22.2,30.72 -7.61,2.19 -8.2,2.12 -11.82,-2.74 -5.38,-7.24 -10.76,-14.48 -15.88,-21.9 -2.32,-3.36 -4.96,-4.67 -9.12,-4.52 -9.43,0.33 -18.89,0.1 -29.06,0.1l0 29.78 -9.24 0 0 -93.04c1.29,-0.45 2.19,-1.05 3.07,-1.04 14.13,0.15 28.3,-0.24 42.38,0.76 14.88,1.05 26.14,10.4 28.68,23.12 3.04,15.19 -1.02,29.33 -16.96,36.43 -1.1,0.49 -2.11,1.15 -4.25,2.33z"/>
   <path class="fil0" d="M1363.45 963.52c16.4,-0.07 29.63,-6.32 37.16,-21.26 7.33,-14.56 6.68,-29.41 -2.94,-42.89 -9.73,-13.65 -23.88,-17.9 -39.94,-16.03 -15.5,1.8 -26.84,9.95 -32.77,24.53 -11.15,27.46 8.35,55.47 38.49,55.65zm0.57 8.21c-24.93,-0.39 -45.3,-15.47 -49.95,-37.37 -6.38,-29.96 13.68,-56.71 44.3,-59.01 8.09,-0.61 16.02,0.13 23.79,2.73 17.6,5.88 33.91,22.86 32.17,49.32 -1.32,19.97 -16.21,37.58 -36.63,42.27 -4.48,1.03 -9.12,1.39 -13.68,2.06z"/>
   <path class="fil0" d="M30.86 283.24c2.07,0.45 3.23,0.92 4.38,0.91 13.42,-0.11 26.85,0.07 40.24,-0.64 4.94,-0.27 10.08,-2.06 14.6,-4.23 11.03,-5.32 15.64,-14.83 15.75,-26.78 0.12,-12.2 -4.42,-21.86 -15.49,-27.77 -6.13,-3.27 -12.79,-4.75 -19.71,-4.82 -10.49,-0.11 -20.98,-0.09 -31.47,-0.12 -2.38,-0.01 -4.76,0 -8.24,0 -0.14,21.7 -0.08,42.52 -0.06,63.45zm-6.81 -69.46c1.58,-0.21 2.74,-0.51 3.9,-0.51 14.88,0.01 29.76,-0.23 44.62,0.24 5.51,0.17 11.16,1.45 16.39,3.25 15.89,5.45 24.71,18.28 24.79,35.07 0.08,16.77 -8.64,29.67 -24.5,35.25 -5.22,1.84 -10.87,2.64 -16.39,3.32 -4.57,0.56 -9.26,0.18 -13.88,0.33 -8.95,0.31 -17.88,0.7 -26.83,1.05 -0.44,8.91 -0.91,17.81 -1.29,26.72 -0.13,3.15 -0.02,6.31 -0.02,10.22 -2.37,0.18 -4.34,0.33 -6.79,0.52l0 -115.46z"/>
   <path class="fil0" d="M1127.24 970.81l0 -94.1c2.12,-0.33 3.77,-0.82 5.41,-0.82 18.04,-0.06 36.07,-0.11 54.11,-0.01 5.87,0.03 5.88,0.25 5.37,7.26l-55.52 0 0 35.64 49.48 0 0 7.17c-16.64,0.88 -32.91,-0.41 -49.55,0.79l0 36.14 57.53 0c0.23,2.78 0.39,4.79 0.65,7.92 -22.7,0.09 -44.72,0.06 -67.48,0.01z"/>
   <path class="fil0" d="M682.09 876.67c2.17,-0.35 3.59,-0.77 5.01,-0.78 18.28,-0.05 36.55,-0.11 54.83,0 5.6,0.04 5.79,0.53 4.81,7.2l-54.16 0c-1.95,5.62 -2.41,23.99 -0.96,35.69 7.93,0.73 16.13,0.22 24.29,0.31 8.23,0.09 16.45,0.02 25.17,0.02l0 6.36c-1.14,0.27 -2.04,0.67 -2.94,0.67 -12.68,0.07 -25.35,0.04 -38.02,0.13 -2.84,0.02 -5.67,0.36 -8.83,0.57l0 35.88c19.16,1.21 38.28,-0.04 57.79,0.71l0 6.87 -66.99 0 0 -93.63z"/>
   <path class="fil0" d="M890.64 887.87c-2.93,2.7 -4.49,4.14 -6.33,5.83 -9.9,-8.75 -21.37,-11.51 -34.06,-10.6 -21.85,1.58 -37.97,18.82 -37.79,40.69 0.18,21.24 16.68,38.35 38.19,39.58 8.88,0.51 17.49,-0.32 25.6,-4.47 3.21,-1.65 4.68,-3.78 4.57,-7.45 -0.2,-6.58 -0.09,-13.16 -0.03,-19.75 0.02,-2.37 0.27,-4.74 0.44,-7.5l7.88 0c0.26,1.65 0.67,3.04 0.68,4.43 0.06,8.77 -0.02,17.55 0.06,26.33 0.03,2.82 -0.38,5.14 -2.96,6.94 -21.38,14.99 -63.58,14.56 -78.91,-17.96 -13.5,-28.61 2.41,-64.9 40.88,-68.55 9.58,-0.91 19.08,-0.04 27.9,4.11 4.5,2.12 8.59,5.14 13.88,8.37z"/>
   <path class="fil0" d="M543.87 213.71l7.32 0c0.17,2.23 0.43,4.14 0.43,6.04 0.03,20.74 0.13,41.48 -0.08,62.21 -0.05,5.08 -0.68,10.26 -1.85,15.2 -4.45,18.71 -16.68,29.47 -35.46,32.09 -7.36,1.03 -15.19,0.84 -22.51,-0.47 -20.26,-3.65 -32.53,-17.54 -34.44,-38.06 -0.61,-6.54 -0.64,-13.15 -0.68,-19.74 -0.09,-16.34 -0.05,-32.69 -0.01,-49.03 0.01,-2.62 0.27,-5.25 0.44,-8.22l6.38 0c0.22,1.53 0.59,2.93 0.6,4.34 0.04,20 -0.06,40.01 0.1,60.01 0.04,5.09 0.47,10.24 1.33,15.26 2.7,15.92 12.12,25.94 27.97,28.82 6.37,1.16 13.2,1.38 19.59,0.43 18.13,-2.68 28.67,-14.8 30.49,-33.99 0.39,-4.12 0.36,-8.29 0.37,-12.43 0.03,-18.05 0.01,-36.11 0.01,-54.16 0,-2.63 0,-5.26 0,-8.3z"/>
   <path class="fil0" d="M984.92 877.09l0 6.15 -55.48 0 0 35.66 49.47 0c0.13,2.64 0.21,4.45 0.34,7.25l-49.74 0c-1.06,12.73 -0.9,24.5 -0.12,36.83l56.59 0c2.59,6.3 2.15,7.74 -2.79,7.77 -20.01,0.13 -40.01,0.02 -60.02,-0.06 -0.91,0 -1.83,-0.52 -2.94,-0.86l0 -92.6c6.52,-1.85 57.57,-1.95 64.69,-0.14z"/>
   <path class="fil0" d="M947.04 865.85c4.69,-4.15 9.34,-8.35 14.08,-12.44 3.33,-2.87 7.12,-1.42 11.31,-0.22 -5.96,4.41 -11.79,9.01 -17.97,13.09 -1.78,1.18 -4.55,0.87 -6.87,1.24 -0.18,-0.56 -0.37,-1.11 -0.55,-1.67z"/>
  </g>
 </g>
</svg>
