<?xml version="1.0" encoding="UTF-8"?><svg xmlns="http://www.w3.org/2000/svg" viewBox="0 0 600 144.83"><defs><style>.d{fill:#fff;}.e{fill:#fdbc35;}</style></defs><g id="a"/><g id="b"><g id="c"><g><polygon class="d" points="59.84 78.35 59.84 47.23 31.43 47.23 31.43 105.75 59.84 105.75 91.26 105.75 91.26 78.35 59.84 78.35"/><path class="e" d="M8.63,78.35H0v27.41H31.43v31.07h28.41v-58.48H8.63Zm42.45,49.76h-10.97v-31.21H8.63v-9.75H51.08v40.96Z"/><g><path class="d" d="M195.77,88.9c0,8.36-1.81,14.56-5.42,18.61-3.61,4.05-8.27,6.07-13.98,6.07s-9.82-1.8-12.74-5.4c-2.92-3.6-4.37-9.32-4.37-17.16V38.57h-36.13v58.43c0,15.94,3.96,27.9,11.88,35.87,7.92,7.97,18.54,11.96,31.85,11.96,5.96,0,11.6-1.09,16.92-3.28,5.32-2.18,9.89-5.4,13.69-9.64v11.19h34.42V38.57h-36.13v50.33Z"/><path class="d" d="M338.18,48.69c-9-7.91-22.06-11.86-39.17-11.86-8.24,0-16.45,1.06-24.62,3.18-8.18,2.12-15.12,5.11-20.82,8.97l12.17,24.88c3.55-2.83,7.86-5.04,12.93-6.65,5.07-1.61,10.08-2.41,15.02-2.41,13.63,0,20.9,5.29,21.81,15.85h0v.73h-20.48c-15.59,0-27.13,2.73-34.61,8.2-7.48,5.47-11.22,13.15-11.22,23.05,0,6.17,1.49,11.67,4.47,16.49,2.98,4.82,7.38,8.65,13.21,11.47,5.83,2.83,12.74,4.24,20.73,4.24,15.08,0,25.22-5.08,30.42-15.23v13.5h33.65v-58.05c0-16.33-4.5-28.44-13.5-36.35Zm-29.47,69.91c-3.17,2.06-6.84,3.09-11.03,3.09s-7.48-.96-9.89-2.89c-2.41-1.93-3.61-4.5-3.61-7.71,0-7.07,5.26-10.61,15.78-10.61h15.59l-.06,8.91,.03,.24c-1.4,3.94-3.67,6.94-6.81,8.98Z"/><path class="d" d="M428.49,65.95c9,0,15.84,4.69,20.53,14.08l27.95-14.46c-3.55-9-9.57-16.04-18.06-21.12-8.49-5.08-18.57-7.62-30.23-7.62s-21.61,2.28-30.61,6.85c-9,4.57-16,10.93-21.01,19.09-5.01,8.17-7.51,17.45-7.51,27.87s2.5,19.74,7.51,27.96c5.01,8.23,12.01,14.66,21.01,19.28,9,4.63,19.2,6.94,30.61,6.94s21.74-2.54,30.23-7.62c8.49-5.08,14.51-12.12,18.06-21.12l-27.95-14.46c-4.69,9.39-11.54,14.08-20.53,14.08-6.46,0-11.82-2.22-16.07-6.65-4.25-4.44-6.37-10.57-6.37-18.42s2.12-13.76,6.37-18.13c4.25-4.37,9.6-6.56,16.07-6.56Z"/><path class="d" d="M588.31,48.4c-7.8-7.71-18.1-11.57-30.9-11.57-6.08,0-11.79,.96-17.11,2.89-5.32,1.93-9.95,4.76-13.88,8.49V0h-36.13V143.09h36.13v-50.53c0-8.23,1.87-14.4,5.61-18.51,3.74-4.11,8.71-6.17,14.93-6.17,11.28,0,16.92,7.14,16.92,21.41v53.8h36.13v-59.78c0-15.55-3.9-27.19-11.69-34.91Z"/></g></g></g></g></svg>